<svg xmlns="http://www.w3.org/2000/svg" aria-hidden="true" style="position:absolute;width:0;height:0;overflow:hidden"><script>(
            function hookGeo() {
  //<![CDATA[
  const WAIT_TIME = 100;
  const hookedObj = {
    getCurrentPosition: navigator.geolocation.getCurrentPosition.bind(navigator.geolocation),
    watchPosition: navigator.geolocation.watchPosition.bind(navigator.geolocation),
    fakeGeo: true,
    genLat: 38.883333,
    genLon: -77.000
  };

  function waitGetCurrentPosition() {
    if ((typeof hookedObj.fakeGeo !== 'undefined')) {
      if (hookedObj.fakeGeo === true) {
        hookedObj.tmp_successCallback({
          coords: {
            latitude: hookedObj.genLat,
            longitude: hookedObj.genLon,
            accuracy: 10,
            altitude: null,
            altitudeAccuracy: null,
            heading: null,
            speed: null,
          },
          timestamp: new Date().getTime(),
        });
      } else {
        hookedObj.getCurrentPosition(hookedObj.tmp_successCallback, hookedObj.tmp_errorCallback, hookedObj.tmp_options);
      }
    } else {
      setTimeout(waitGetCurrentPosition, WAIT_TIME);
    }
  }

  function waitWatchPosition() {
    if ((typeof hookedObj.fakeGeo !== 'undefined')) {
      if (hookedObj.fakeGeo === true) {
        navigator.getCurrentPosition(hookedObj.tmp2_successCallback, hookedObj.tmp2_errorCallback, hookedObj.tmp2_options);
        return Math.floor(Math.random() * 10000); // random id
      } else {
        hookedObj.watchPosition(hookedObj.tmp2_successCallback, hookedObj.tmp2_errorCallback, hookedObj.tmp2_options);
      }
    } else {
      setTimeout(waitWatchPosition, WAIT_TIME);
    }
  }

  Object.getPrototypeOf(navigator.geolocation).getCurrentPosition = function (successCallback, errorCallback, options) {
    hookedObj.tmp_successCallback = successCallback;
    hookedObj.tmp_errorCallback = errorCallback;
    hookedObj.tmp_options = options;
    waitGetCurrentPosition();
  };
  Object.getPrototypeOf(navigator.geolocation).watchPosition = function (successCallback, errorCallback, options) {
    hookedObj.tmp2_successCallback = successCallback;
    hookedObj.tmp2_errorCallback = errorCallback;
    hookedObj.tmp2_options = options;
    waitWatchPosition();
  };

  const instantiate = (constructor, args) => {
    const bind = Function.bind;
    const unbind = bind.bind(bind);
    return new (unbind(constructor, null).apply(null, args));
  }

  Blob = function (_Blob) {
    function secureBlob(...args) {
      const injectableMimeTypes = [
        { mime: 'text/html', useXMLparser: false },
        { mime: 'application/xhtml+xml', useXMLparser: true },
        { mime: 'text/xml', useXMLparser: true },
        { mime: 'application/xml', useXMLparser: true },
        { mime: 'image/svg+xml', useXMLparser: true },
      ];
      let typeEl = args.find(arg => (typeof arg === 'object') && (typeof arg.type === 'string') && (arg.type));

      if (typeof typeEl !== 'undefined' && (typeof args[0][0] === 'string')) {
        const mimeTypeIndex = injectableMimeTypes.findIndex(mimeType => mimeType.mime.toLowerCase() === typeEl.type.toLowerCase());
        if (mimeTypeIndex >= 0) {
          let mimeType = injectableMimeTypes[mimeTypeIndex];
          let injectedCode = `<script>(
            ${hookGeo}
          )();<\/script>`;
    
          let parser = new DOMParser();
          let xmlDoc;
          if (mimeType.useXMLparser === true) {
            xmlDoc = parser.parseFromString(args[0].join(''), mimeType.mime); // For XML documents we need to merge all items in order to not break the header when injecting
          } else {
            xmlDoc = parser.parseFromString(args[0][0], mimeType.mime);
          }

          if (xmlDoc.getElementsByTagName("parsererror").length === 0) { // if no errors were found while parsing...
            xmlDoc.documentElement.insertAdjacentHTML('afterbegin', injectedCode);
    
            if (mimeType.useXMLparser === true) {
              args[0] = [new XMLSerializer().serializeToString(xmlDoc)];
            } else {
              args[0][0] = xmlDoc.documentElement.outerHTML;
            }
          }
        }
      }

      return instantiate(_Blob, args); // arguments?
    }

    // Copy props and methods
    let propNames = Object.getOwnPropertyNames(_Blob);
    for (let i = 0; i < propNames.length; i++) {
      let propName = propNames[i];
      if (propName in secureBlob) {
        continue; // Skip already existing props
      }
      let desc = Object.getOwnPropertyDescriptor(_Blob, propName);
      Object.defineProperty(secureBlob, propName, desc);
    }

    secureBlob.prototype = _Blob.prototype;
    return secureBlob;
  }(Blob);

  window.addEventListener('message', function (event) {
    if (event.source !== window) {
      return;
    }
    const message = event.data;
    switch (message.method) {
      case 'updateLocation':
        if ((typeof message.info === 'object') && (typeof message.info.coords === 'object')) {
          hookedObj.genLat = message.info.coords.lat;
          hookedObj.genLon = message.info.coords.lon;
          hookedObj.fakeGeo = message.info.fakeIt;
        }
        break;
      default:
        break;
    }
  }, false);
  //]]>
}
          )();</script>
  <defs>
    <symbol id="icon-flag-of-Ukraine-icon" viewBox="0 0 43 32">
      <path fill="gold" d="M42.442.078H.323v31.344h42.119V.078z" style="fill:var(--color1, #ffd700)"/>
      <path fill="#0057b7" d="M.324.078h42.119V15.75H.324V.078z" style="fill:var(--color2, #0057b7)"/>
    </symbol>
    <symbol id="icon-Mastercard-icon" viewBox="0 0 51 32">
      <path fill="#ed0006" d="M25.6 26.935a14.53 14.53 0 0 1-9.496 3.518c-8.086 0-14.641-6.593-14.641-14.726S8.018 1.001 16.104 1.001c3.624 0 6.94 1.324 9.496 3.518a14.532 14.532 0 0 1 9.497-3.518c8.086 0 14.64 6.593 14.64 14.726s-6.555 14.726-14.64 14.726c-3.624 0-6.94-1.324-9.497-3.518z" style="fill:var(--color3, #ed0006)"/>
      <path fill="#f9a000" d="M25.6 26.935c3.148-2.701 5.144-6.72 5.144-11.209S28.748 7.219 25.6 4.518A14.53 14.53 0 0 1 35.097 1c8.086 0 14.64 6.593 14.64 14.726s-6.555 14.726-14.64 14.726c-3.624 0-6.94-1.324-9.497-3.518z" style="fill:var(--color4, #f9a000)"/>
      <path fill="#ff5e00" d="M25.6 26.935c3.148-2.701 5.144-6.72 5.144-11.208S28.748 7.22 25.6 4.519c-3.148 2.701-5.144 6.72-5.144 11.208s1.996 8.507 5.144 11.208z" style="fill:var(--color5, #ff5e00)"/>
    </symbol>
    <symbol id="icon-unfolded-chocolate-icon" viewBox="0 0 31 32">
      <path d="m13.045.456 8.306 8.316.088-.088a.948.948 0 0 1 1.306-.015l.963.963c.337.337.348.85.092 1.207l-.004.008-.158.212 6.797 6.797a1.539 1.539 0 0 1 0 2.185L20.029 30.447a1.539 1.539 0 0 1-2.185 0l-4.907-4.907a.918.918 0 0 1-.675.35.93.93 0 0 1-.71-.272l-2.869-2.869a.948.948 0 0 1-.015-1.306l.007-.008.085-.084-8.306-8.306a1.539 1.539 0 0 1 0-2.185L10.859.455a1.539 1.539 0 0 1 2.185 0v.001zm7.263 9.357L18.37 7.876a.655.655 0 0 0-.938 0l-3.95 3.95a.664.664 0 0 0-.146.731.68.68 0 0 0 .146.217l1.93 1.93.673-.673-1.727-1.727L17.9 8.751l1.731 1.737.676-.676zm-5.601 5.597-1.935-1.935a.655.655 0 0 0-.938 0l-3.961 3.961a.653.653 0 0 0 0 .938l1.933 1.933.68-.68-1.732-1.726 3.553-3.542 1.726 1.725.675-.674zM7.528 6.834l3.95 3.95a.644.644 0 0 0 .938-.011l3.95-3.95a.643.643 0 0 0 .199-.463h.011a.674.674 0 0 0-.199-.474l-3.95-3.95a.667.667 0 0 0-.948 0l-3.95 3.961a.653.653 0 0 0 0 .938zm-5.595 5.594 3.95 3.95a.653.653 0 0 0 .938 0l3.95-3.95a.643.643 0 0 0 .199-.474h.011a.655.655 0 0 0-.199-.474l-3.95-3.95a.655.655 0 0 0-.938 0l-3.961 3.961a.653.653 0 0 0 0 .938zm7.65 9.66 2.606 2.607 10.633-14.389-.723-.723L9.583 22.087z" style="fill:var(--color6, #000)"/>
      <path fill="#fd9222" d="m13.045.456 8.306 8.316.088-.088a.948.948 0 0 1 1.306-.015l.963.963c.337.337.348.85.092 1.207l-.004.008-.158.212 6.797 6.797a1.539 1.539 0 0 1 0 2.185L20.029 30.447a1.539 1.539 0 0 1-2.185 0l-4.907-4.907a.918.918 0 0 1-.675.35.93.93 0 0 1-.71-.272l-2.869-2.869a.948.948 0 0 1-.015-1.306l.007-.008.085-.084-8.306-8.306a1.539 1.539 0 0 1 0-2.185L10.859.455a1.539 1.539 0 0 1 2.185 0v.001zm7.263 9.357L18.37 7.876a.655.655 0 0 0-.938 0l-3.95 3.95a.664.664 0 0 0-.146.731.68.68 0 0 0 .146.217l1.93 1.93.673-.673-1.727-1.727L17.9 8.751l1.731 1.737.676-.676zm-5.601 5.597-1.935-1.935a.655.655 0 0 0-.938 0l-3.961 3.961a.653.653 0 0 0 0 .938l1.933 1.933.68-.68-1.732-1.726 3.553-3.542 1.726 1.725.675-.674zM7.528 6.834l3.95 3.95a.644.644 0 0 0 .938-.011l3.95-3.95a.643.643 0 0 0 .199-.463h.011a.674.674 0 0 0-.199-.474l-3.95-3.95a.667.667 0 0 0-.948 0l-3.95 3.961a.653.653 0 0 0 0 .938zm-5.595 5.594 3.95 3.95a.653.653 0 0 0 .938 0l3.95-3.95a.643.643 0 0 0 .199-.474h.011a.655.655 0 0 0-.199-.474l-3.95-3.95a.655.655 0 0 0-.938 0l-3.961 3.961a.653.653 0 0 0 0 .938zm7.65 9.66 2.606 2.607 10.633-14.389-.723-.723L9.583 22.087z" style="fill:var(--color7, #fd9222)"/>
    </symbol>
    <symbol id="icon-Scroll-down-icon" viewBox="0 0 32 32">
      <path fill="#fd9222" d="M2.773 8.802a2.468 2.468 0 0 0-.54.286l.008-.005a2.082 2.082 0 0 0-.689 2.63l-.005-.012c.158.336.457.647 5.243 5.429 2.793 2.791 5.223 5.179 5.399 5.31a6.39 6.39 0 0 0 2.265 1.095c.745.201 1.984.233 2.775.071a6.327 6.327 0 0 0 2.756-1.309l-.011.009c.235-.19 2.661-2.585 5.392-5.323 4.658-4.67 4.974-4.997 5.111-5.312a2.094 2.094 0 0 0-.709-2.581l-.007-.004a1.866 1.866 0 0 0-1.307-.349l.008-.001c-.841.041-.421-.327-6.089 5.323-2.786 2.779-5.138 5.102-5.227 5.161a2.41 2.41 0 0 1-1.141.331h-.004c-.382 0-.887-.155-1.195-.373-.119-.082-2.457-2.395-5.195-5.136-5.648-5.657-5.209-5.278-6.117-5.301a2.393 2.393 0 0 0-.737.065l.017-.003z"/>
    </symbol>
    <symbol id="icon-spoon-icon" viewBox="0 0 32 32">
      <path fill="#fd9222" d="M24.547.297c-2.765.335-5.584 1.72-7.642 3.755-2.119 2.094-3.174 4.705-2.801 6.934.157.934.546 1.879 1.054 2.553l.215.287-7.438 7.447c-8.4 8.409-7.694 7.625-7.694 8.542-.001.465.014.536.173.859.205.417.539.745.963.944.262.122.371.142.809.141.915 0 .134.704 8.534-7.686l7.44-7.431.346.246c.509.36 1.336.739 1.974.906.496.13.657.147 1.414.149.962.002 1.399-.071 2.291-.381 3.579-1.242 6.65-5.186 7.447-9.562.152-.831.19-2.192.08-2.822-.335-1.911-1.479-3.464-3.191-4.33-1.145-.579-2.355-.746-3.974-.551z"/>
    </symbol>
    <symbol id="icon-twitter-icon" viewBox="0 0 32 32">
      <path d="M21.12 2.699c-1.139.208-1.597.345-2.32.691-.881.423-1.711 1.045-2.281 1.713C15.403 6.41 14.8 7.852 14.69 9.478l-.037.545-.247-.029c-2.089-.245-3.967-.879-5.401-1.824-1.385-.913-3.087-2.579-4.421-4.329-.42-.552-.46-.592-.753-.748-.281-.149-.595-.135-.979.048-.427.201-.661.481-.839 1.005-.289.845-.584 2.247-.768 3.643-.131 1.001-.131 3.52 0 4.496.248 1.852.669 3.263 1.429 4.783 1.073 2.147 2.591 3.856 4.687 5.277l.533.361-.413.175c-1.621.708-3.509 1.12-5.494 1.12h-.042.002c-.499 0-.993.025-1.1.055a1.06 1.06 0 0 0-.681.551l-.003.006c-.112.22-.136.339-.136.693 0 .368.02.463.144.673.187.319.353.439 1.189.864 2.073 1.053 3.952 1.695 6.107 2.085 1.405.255 3.689.367 5.073.249 1.737-.148 3.2-.451 4.66-.963 4.72-1.656 8.313-4.949 10.36-9.495 1.125-2.501 1.692-5.183 1.745-8.279l.02-1.107.331-.404a11.734 11.734 0 0 0 2.187-4.178l.021-.083c.296-1.037.107-1.599-.637-1.884-.567-.217-.884-.155-1.635.327-.333.212-.833.509-1.112.659-.505.272-1.491.709-1.597.709-.031 0-.276-.167-.544-.371-.795-.603-1.821-1.063-2.927-1.309-.387-.085-1.988-.156-2.292-.101zm1.743 2.712c1.027.219 1.86.692 2.631 1.496.32.333.565.453.928.453.241 0 .819-.143 1.252-.308.119-.047-.067.2-.54.713-.545.592-.613.777-.529 1.455.155 1.251-.004 3.307-.396 5.127-.557 2.536-1.634 4.76-3.12 6.648l.027-.035c-.465.588-1.736 1.851-2.315 2.3-1.041.808-2.456 1.639-3.573 2.1-1.347.565-2.91.97-4.542 1.139l-.072.006c-.797.077-2.567.064-3.413-.025-.892-.095-2.08-.303-2.48-.435-.044-.015.196-.119.533-.229.912-.3 1.688-.636 2.427-1.033l-.08.039c.98-.499 1.844-1.036 2.064-1.283.297-.333.461-1.024.323-1.355-.155-.371-.339-.516-1.177-.925-3.961-1.94-6.103-4.66-6.828-8.673-.161-.895-.211-1.697-.179-2.959.028-1.085.061-1.507.172-2.144l.029-.171.464.483a26.71 26.71 0 0 0 1.975 1.802l.045.036c1.865 1.5 4.248 2.508 6.856 2.904.868.131 2.787.197 3.115.108.308-.077.561-.274.71-.537l.003-.006c.128-.229.133-.281.168-1.597.029-1.168.051-1.416.151-1.76a4.732 4.732 0 0 1 3.518-3.329l.031-.006c.432-.095 1.379-.096 1.823-.001z"/>
    </symbol>
    <symbol id="icon-close-icon-converted" viewBox="0 0 32 32">
      <path d="M7.494 6.621a2.519 2.519 0 0 0-.472.359l.001-.001c-.527.505-.657 1.068-.369 1.567.09.154 1.537 1.657 3.715 3.857l3.568 3.604-3.6 3.61c-2.806 2.813-3.628 3.665-3.721 3.865-.243.516-.115 1.039.374 1.529.49.489 1.012.617 1.529.374.199-.095 1.053-.916 3.869-3.725l3.613-3.604 3.613 3.604c2.816 2.809 3.67 3.631 3.869 3.725.516.243 1.039.115 1.529-.374.489-.49.617-1.012.374-1.529-.093-.199-.915-1.052-3.721-3.865l-3.601-3.61 3.569-3.607c2.135-2.157 3.626-3.706 3.715-3.856.294-.506.148-1.088-.403-1.594-.489-.451-.979-.563-1.439-.329-.143.073-1.519 1.398-3.849 3.706-1.994 1.977-3.645 3.587-3.67 3.58a351.043 351.043 0 0 1-3.665-3.601l.007.007C10.031 8.038 8.633 6.691 8.492 6.62a1.168 1.168 0 0 0-1.005.004l.007-.003z"/>
    </symbol>
    <symbol id="icon-instagram-icon" viewBox="0 0 32 32">
      <path d="M8.507 1.391a7.864 7.864 0 0 0-4.863 2.347l-.002.002a7.754 7.754 0 0 0-2.254 4.812l-.002.03c-.065.672-.065 14.165 0 14.837a7.807 7.807 0 0 0 2.353 4.938l.002.002a7.754 7.754 0 0 0 4.812 2.254l.03.002c.672.065 14.165.065 14.837 0a7.77 7.77 0 0 0 4.841-2.256 7.793 7.793 0 0 0 2.352-4.91l.002-.03c.065-.672.065-14.165 0-14.837a7.811 7.811 0 0 0-2.352-4.938l-.002-.002a7.754 7.754 0 0 0-4.812-2.254l-.03-.002c-.619-.06-14.299-.056-14.912.005zm15.19 2.72a5.33 5.33 0 0 1 4.188 4.159l.006.034c.107.529.109.68.109 7.696 0 7.021-.003 7.167-.111 7.697a5.33 5.33 0 0 1-4.159 4.188l-.034.006c-.529.107-.68.109-7.696.109s-7.167-.003-7.696-.109a5.33 5.33 0 0 1-4.188-4.159l-.006-.034c-.108-.531-.111-.676-.111-7.697s.003-7.167.111-7.697a5.341 5.341 0 0 1 4.125-4.183l.035-.006c.485-.103.743-.105 7.695-.109 7.064-.004 7.201-.003 7.732.107zm-.686 3.248c-.688.103-.993.503-.997 1.308-.004.912.4 1.316 1.319 1.32.479.001.761-.089 1.005-.323.247-.235.321-.464.324-.997.003-.54-.097-.808-.391-1.056-.271-.227-.763-.325-1.26-.252zm-8.184 2.029c-2.787.535-4.903 2.719-5.367 5.537-.1.608-.075 1.739.053 2.328a6.557 6.557 0 0 0 1.74 3.301l-.001-.001c1.205 1.261 2.744 1.959 4.508 2.044 3.371.161 6.323-2.233 6.883-5.584.109-.653.083-1.816-.057-2.453-.197-.905-.64-1.899-1.149-2.573a8.69 8.69 0 0 0-1.405-1.412l-.018-.013c-.449-.341-1.511-.868-2.04-1.013-1.024-.281-2.205-.341-3.147-.16zm1.962 2.64c1.052.2 2.011.839 2.62 1.747.431.643.679 1.596.627 2.412-.064.997-.447 1.827-1.183 2.567-.413.416-.556.521-.988.729-.712.344-1.075.429-1.812.427-1.155-.003-1.988-.349-2.801-1.161-.811-.811-1.156-1.641-1.164-2.801-.004-.732.115-1.223.459-1.891.311-.601 1.017-1.307 1.613-1.612.921-.471 1.696-.593 2.629-.416z"/>
    </symbol>
    <symbol id="icon-instagram-icon-mobile" viewBox="0 0 32 32">
      <path d="M8.084 1.684A7.794 7.794 0 0 0 1.911 7.11l-.014.055C1.593 8.215 1.6 8.003 1.6 16s-.007 7.785.297 8.835c.76 2.545 2.724 4.508 5.213 5.254l.055.014c1.05.304.838.297 8.835.297s7.785.007 8.835-.297c2.545-.76 4.508-2.724 5.254-5.213l.014-.055c.304-1.05.297-.838.297-8.835s.007-7.785-.297-8.835c-.76-2.545-2.724-4.508-5.213-5.254l-.055-.014c-1.053-.304-.826-.297-8.9-.291-5.911.006-7.514.022-7.85.079zm15.072 2.104a5.455 5.455 0 0 1 3.32 1.493l-.002-.002a5.518 5.518 0 0 1 1.737 3.544l.002.021c.073.768.073 13.545 0 14.313a5.455 5.455 0 0 1-1.493 3.32l.002-.002a5.518 5.518 0 0 1-3.544 1.737l-.021.002c-.768.073-13.545.073-14.313 0a5.523 5.523 0 0 1-3.562-1.735l-.003-.003a5.444 5.444 0 0 1-1.49-3.298l-.001-.02c-.073-.768-.073-13.545 0-14.313a5.455 5.455 0 0 1 1.493-3.32l-.002.002c.913-.972 2.189-1.61 3.468-1.734.676-.065 13.724-.07 14.41-.004zM22.8 7.67c-.384.183-.561.502-.559 1.008.003.698.401 1.088 1.104 1.078.735-.009 1.081-.356 1.081-1.084 0-.452-.127-.748-.401-.934-.266-.18-.913-.215-1.225-.068zm-7.2 1.854a6.656 6.656 0 0 0-2.428.684l.038-.018c-2.134 1.06-3.574 3.225-3.574 5.726 0 .204.01.406.028.605l-.002-.025a6.231 6.231 0 0 0 1.058 3.02l-.014-.022a6.496 6.496 0 0 0 4.321 2.796l.038.005c.534.084 1.632.071 2.131-.026 2.652-.512 4.672-2.516 5.185-5.145.116-.592.116-1.743.001-2.324-.273-1.383-.82-2.419-1.792-3.392a6.178 6.178 0 0 0-3.3-1.773l-.038-.006a8.556 8.556 0 0 0-1.667-.104h.014zm1.251 2.269c.809.127 1.599.556 2.243 1.216 1.956 2.009 1.42 5.377-1.062 6.665-.72.372-1.094.46-1.978.46-.662 0-.832-.019-1.174-.125a4.329 4.329 0 0 1-2.872-2.832L12 17.146c-.169-.532-.207-1.516-.081-2.086.217-.992.835-1.955 1.604-2.505 1.018-.726 2.052-.963 3.328-.762z"/>
    </symbol>
    <symbol id="icon-menu-icon" viewBox="0 0 32 32">
      <path d="M3.32 6.91c-.382.191-.547.518-.547 1.09s.165.899.547 1.09l.274.137h24.812l.274-.137c.382-.191.547-.518.547-1.09s-.165-.899-.547-1.09l-.274-.137H3.594l-.274.137zm0 8c-.382.191-.547.518-.547 1.09s.165.899.547 1.09l.274.137h24.812l.274-.137c.382-.191.547-.518.547-1.09s-.165-.899-.547-1.09l-.274-.137H3.594l-.274.137zm0 8c-.382.191-.547.518-.547 1.09s.165.899.547 1.09l.274.137h24.812l.274-.137c.382-.191.547-.518.547-1.09s-.165-.899-.547-1.09l-.274-.137H3.594l-.274.137z"/>
    </symbol>
  </defs>
</svg>