<svg aria-hidden="true" style="position: absolute; width: 0; height: 0; overflow: hidden;" version="1.1" xmlns="http://www.w3.org/2000/svg" xmlns:xlink="http://www.w3.org/1999/xlink">
<defs>
<symbol id="icon-close-modalka" viewBox="0 0 32 32">
<path stroke-linejoin="round" stroke-linecap="round" stroke-miterlimit="4" stroke-width="2.2857" d="M24 8l-16 16M8 8l16 16"></path>
</symbol>
<symbol id="icon-spoon-advantages" viewBox="0 0 32 32">
<path  d="M15.373 13.835c-0.837-1.010-1.344-2.319-1.344-3.746 0-0.002 0-0.003 0-0.005v0c0-4.942 5.92-9.877 11.842-9.877 3.27 0.001 5.921 2.652 5.921 5.922v0c0 5.922-4.935 11.845-9.881 11.845-0.001 0-0.002 0-0.003 0-1.428 0-2.737-0.508-3.756-1.353l0.010 0.008-14.582 14.584c-0.351 0.324-0.822 0.522-1.339 0.522-1.092 0-1.977-0.885-1.977-1.977 0-0.517 0.199-0.988 0.524-1.341l-0.001 0.001 14.585-14.584z"></path>
</symbol>
<symbol id="icon-dollar-advantages" viewBox="0 0 32 32">
<path  d="M16 0.762c-8.381 0-15.238 6.857-15.238 15.238s6.857 15.238 15.238 15.238 15.238-6.857 15.238-15.238-6.857-15.238-15.238-15.238zM16 28.191c-6.705 0-12.191-5.486-12.191-12.191s5.486-12.191 12.191-12.191c6.704 0 12.19 5.486 12.19 12.191s-5.486 12.191-12.19 12.191z"></path>
<path  d="M17.981 14.477h-3.961c-0.762 0-1.371-0.61-1.371-1.371 0-0.762 0.609-1.371 1.371-1.371h5.638c0.914 0 1.523-0.61 1.523-1.525s-0.609-1.523-1.523-1.523h-2.134v-1.371c0-0.914-0.609-1.523-1.523-1.523s-1.523 0.609-1.523 1.523v1.371h-0.457c-2.44 0.002-4.417 1.979-4.419 4.419v0c0.003 2.439 1.98 4.416 4.419 4.418h3.809c0.762 0 1.371 0.61 1.371 1.371 0 0.762-0.609 1.371-1.371 1.371h-5.638c-0.914 0-1.525 0.61-1.525 1.525s0.61 1.523 1.525 1.523h2.286v1.371c0 0.914 0.609 1.523 1.523 1.523s1.523-0.609 1.523-1.523v-1.371h0.457c2.44-0.002 4.417-1.979 4.419-4.419v-0c-0.003-2.439-1.98-4.416-4.419-4.418h-0z"></path>
</symbol>
<symbol id="icon-choc-advantages" viewBox="0 0 31 32">
<path  d="M13.045 0.456l8.306 8.316 0.088-0.088c0.17-0.167 0.403-0.27 0.661-0.27 0.25 0 0.477 0.097 0.646 0.256l-0-0 0.963 0.963c0.337 0.337 0.348 0.85 0.092 1.207l-0.004 0.008-0.158 0.212 6.797 6.797c0.607 0.607 0.607 1.578 0 2.185l-10.406 10.406c-0.607 0.607-1.578 0.607-2.185 0l-4.907-4.907c-0.171 0.215-0.434 0.352-0.728 0.352-0.257 0-0.49-0.105-0.658-0.274l-2.869-2.869c-0.167-0.17-0.27-0.403-0.27-0.661 0-0.25 0.097-0.477 0.256-0.646l-0 0 0.007-0.008 0.085-0.084-8.306-8.306c-0.607-0.607-0.607-1.578 0-2.185l10.406-10.406c0.607-0.607 1.578-0.607 2.185 0v0.001zM20.308 9.813l-1.938-1.937c-0.119-0.122-0.285-0.199-0.469-0.199s-0.35 0.076-0.469 0.198l-3.95 3.951c-0.122 0.121-0.197 0.289-0.197 0.474s0.075 0.353 0.197 0.474l1.93 1.93 0.673-0.673-1.727-1.727 3.542-3.553 1.731 1.737 0.676-0.676zM14.707 15.41l-1.935-1.935c-0.119-0.122-0.285-0.198-0.469-0.198s-0.35 0.076-0.469 0.198l-3.962 3.962c-0.265 0.254-0.265 0.673 0 0.938l1.933 1.933 0.68-0.68-1.732-1.726 3.553-3.542 1.726 1.725 0.675-0.674zM7.528 6.834l3.95 3.95c0.265 0.265 0.684 0.265 0.938-0.011l3.95-3.95c0.122-0.117 0.199-0.281 0.199-0.463 0-0 0-0 0-0v0h0.011c0-0.166-0.066-0.342-0.199-0.474l-3.95-3.95c-0.121-0.123-0.289-0.198-0.474-0.198s-0.354 0.076-0.474 0.198l-0 0-3.95 3.961c-0.265 0.254-0.265 0.673 0 0.938zM1.933 12.428l3.95 3.95c0.265 0.265 0.684 0.265 0.938 0l3.95-3.95c0.123-0.117 0.199-0.281 0.199-0.464 0-0.004-0-0.008-0-0.012v0.001h0.011c0-0.177-0.066-0.342-0.199-0.474l-3.95-3.95c-0.119-0.122-0.285-0.199-0.469-0.199s-0.35 0.076-0.469 0.198l-3.962 3.962c-0.265 0.254-0.265 0.673 0 0.938zM9.583 22.088l2.606 2.607 10.633-14.389-0.723-0.723-12.516 12.504z"></path>
<path  d="M13.045 0.456l8.306 8.316 0.088-0.088c0.17-0.167 0.403-0.27 0.661-0.27 0.25 0 0.477 0.097 0.646 0.256l-0-0 0.963 0.963c0.337 0.337 0.348 0.85 0.092 1.207l-0.004 0.008-0.158 0.212 6.797 6.797c0.607 0.607 0.607 1.578 0 2.185l-10.406 10.406c-0.607 0.607-1.578 0.607-2.185 0l-4.907-4.907c-0.171 0.215-0.434 0.352-0.728 0.352-0.257 0-0.49-0.105-0.658-0.274l-2.869-2.869c-0.167-0.17-0.27-0.403-0.27-0.661 0-0.25 0.097-0.477 0.256-0.646l-0 0 0.007-0.008 0.085-0.084-8.306-8.306c-0.607-0.607-0.607-1.578 0-2.185l10.406-10.406c0.607-0.607 1.578-0.607 2.185 0v0.001zM20.308 9.813l-1.938-1.937c-0.119-0.122-0.285-0.199-0.469-0.199s-0.35 0.076-0.469 0.198l-3.95 3.951c-0.122 0.121-0.197 0.289-0.197 0.474s0.075 0.353 0.197 0.474l1.93 1.93 0.673-0.673-1.727-1.727 3.542-3.553 1.731 1.737 0.676-0.676zM14.707 15.41l-1.935-1.935c-0.119-0.122-0.285-0.198-0.469-0.198s-0.35 0.076-0.469 0.198l-3.962 3.962c-0.265 0.254-0.265 0.673 0 0.938l1.933 1.933 0.68-0.68-1.732-1.726 3.553-3.542 1.726 1.725 0.675-0.674zM7.528 6.834l3.95 3.95c0.265 0.265 0.684 0.265 0.938-0.011l3.95-3.95c0.122-0.117 0.199-0.281 0.199-0.463 0-0 0-0 0-0v0h0.011c0-0.166-0.066-0.342-0.199-0.474l-3.95-3.95c-0.121-0.123-0.289-0.198-0.474-0.198s-0.354 0.076-0.474 0.198l-0 0-3.95 3.961c-0.265 0.254-0.265 0.673 0 0.938zM1.933 12.428l3.95 3.95c0.265 0.265 0.684 0.265 0.938 0l3.95-3.95c0.123-0.117 0.199-0.281 0.199-0.464 0-0.004-0-0.008-0-0.012v0.001h0.011c0-0.177-0.066-0.342-0.199-0.474l-3.95-3.95c-0.119-0.122-0.285-0.199-0.469-0.199s-0.35 0.076-0.469 0.198l-3.962 3.962c-0.265 0.254-0.265 0.673 0 0.938zM9.583 22.088l2.606 2.607 10.633-14.389-0.723-0.723-12.516 12.504z"></path>
</symbol>
<symbol id="icon-menu-mobile" viewBox="0 0 48 32">
<path stroke-linejoin="round" stroke-linecap="round" stroke-miterlimit="4" stroke-width="4" d="M3 16h42M3 2h42M3 30h42"></path>
</symbol>
<symbol id="icon-menu-tablet" viewBox="0 0 45 32">
<path stroke-linejoin="round" stroke-linecap="round" stroke-miterlimit="4" stroke-width="4" d="M3.2 16h38.4M3.2 3.2h38.4M3.2 28.8h38.4"></path>
</symbol>
<symbol id="icon-logo-tablet-mobile" viewBox="0 0 32 32">
<path d="M3.944 20.076l10.776-17.425 0.64-0.674 8.236 5.489 0.056 3.314 2.011 3.279-8.881 14.077-12.84-8.062z"></path>
<path stroke="#fd9222" style="stroke: var(--color1, #fd9222)" stroke-linejoin="round" stroke-linecap="round" stroke-miterlimit="4" stroke-width="2.7429" d="M21.635 23.88l-14.187-8.864M11.362 8.599l14.185 8.864M10.63 25.864l11.736-19.25M27.177 14.789c-3.040-1.897-4.235-3.383-2.278-6.59l-9.626-6.014-11.738 19.249 14.187 8.864 9.454-15.508z"></path>
</symbol>
<symbol id="icon-instagram-tab-desk" viewBox="0 0 32 32">
<path stroke-linejoin="round" stroke-linecap="round" stroke-miterlimit="4" stroke-width="2.6667" d="M22.667 2.667h-13.333c-3.682 0-6.667 2.985-6.667 6.667v0 13.333c0 3.682 2.985 6.667 6.667 6.667v0h13.333c3.682 0 6.667-2.985 6.667-6.667v0-13.333c0-3.682-2.985-6.667-6.667-6.667v0z"></path>
<path stroke-linejoin="round" stroke-linecap="round" stroke-miterlimit="4" stroke-width="2.6667" d="M21.333 15.16c0.042 0.251 0.066 0.54 0.066 0.834 0 2.946-2.388 5.333-5.333 5.333-2.688 0-4.911-1.988-5.28-4.574l-0.003-0.028c-0.032-0.22-0.050-0.473-0.050-0.731 0-2.946 2.388-5.333 5.333-5.333 2.651 0 4.85 1.934 5.264 4.468l0.004 0.031z"></path>
<path stroke-linejoin="round" stroke-linecap="round" stroke-miterlimit="4" stroke-width="2.6667" d="M21.333 15.16c0.042 0.251 0.066 0.54 0.066 0.834 0 2.946-2.388 5.333-5.333 5.333-2.688 0-4.911-1.988-5.28-4.574l-0.003-0.028c-0.032-0.22-0.050-0.473-0.050-0.731 0-2.946 2.388-5.333 5.333-5.333 2.651 0 4.85 1.934 5.264 4.468l0.004 0.031zM23.333 8.667h0.013M23.333 8.667h0.013"></path>
</symbol>
<symbol id="icon-twitter-tab-desk" viewBox="0 0 32 32">
<path stroke-linejoin="round" stroke-linecap="round" stroke-miterlimit="4" stroke-width="2.6667" d="M30.667 4c-1.2 0.856-2.591 1.552-4.084 2.013l-0.103 0.027c-1.101-1.261-2.712-2.053-4.507-2.053-3.299 0-5.973 2.674-5.973 5.973 0 0.028 0 0.056 0.001 0.084l-0-0.004v1.333c-0.109 0.003-0.238 0.005-0.367 0.005-2.331 0-4.53-0.561-6.471-1.555l0.080 0.037c-2.093-1.053-4.56-3.563-5.908-5.48 0 0-4.667 12.953 7.333 18.287-2.442 1.677-5.462 2.679-8.716 2.679-0.217 0-0.433-0.004-0.648-0.013l0.031 0.001c12 6.667 26.667 0 26.667-15.333 0-0.372-0.037-0.741-0.107-1.107 1.323-1.305 2.293-2.963 2.758-4.822l0.015-0.071z"></path>
</symbol>
<symbol id="icon-instagram-mob" viewBox="0 0 32 32">
<path stroke-linejoin="round" stroke-linecap="round" stroke-miterlimit="4" stroke-width="2.1818" d="M22.668 2.666h-13.334c-3.682 0-6.666 2.985-6.666 6.666 0 0.001 0 0.001 0 0.002v-0 13.332c0 0 0 0.001 0 0.001 0 3.682 2.985 6.666 6.666 6.666h13.332c0 0 0.001 0 0.001 0 3.682 0 6.666-2.985 6.666-6.666 0-0 0-0.001 0-0.002v0-13.332c0-0 0-0.001 0-0.001 0-3.682-2.985-6.666-6.666-6.666-0 0-0.001 0-0.002 0h0z"></path>
<path stroke-linejoin="round" stroke-linecap="round" stroke-miterlimit="4" stroke-width="2.1818" d="M21.334 15.159c0.037 0.235 0.058 0.506 0.058 0.783 0 2.945-2.387 5.333-5.333 5.333-2.669 0-4.88-1.961-5.271-4.52l-0.004-0.030c-0.037-0.235-0.058-0.506-0.058-0.782 0-2.945 2.387-5.333 5.333-5.333 2.669 0 4.88 1.961 5.271 4.521l0.004 0.030z"></path>
<path stroke-linejoin="round" stroke-linecap="round" stroke-miterlimit="4" stroke-width="2.1818" d="M21.334 15.159c0.037 0.235 0.058 0.506 0.058 0.783 0 2.945-2.387 5.333-5.333 5.333-2.669 0-4.88-1.961-5.271-4.52l-0.004-0.030c-0.037-0.235-0.058-0.506-0.058-0.782 0-2.945 2.387-5.333 5.333-5.333 2.669 0 4.88 1.961 5.271 4.521l0.004 0.030zM23.332 8.666h0.015M23.332 8.666h0.015"></path>
</symbol>
<symbol id="icon-twitter-mob" viewBox="0 0 32 32">
<path stroke-linejoin="round" stroke-linecap="round" stroke-miterlimit="4" stroke-width="2.4" d="M30.667 4c-1.2 0.856-2.591 1.552-4.084 2.013l-0.103 0.027c-1.101-1.262-2.712-2.054-4.508-2.054-3.299 0-5.973 2.674-5.973 5.973 0 0.029 0 0.057 0.001 0.086l-0-0.004v1.333c-0.11 0.003-0.24 0.005-0.37 0.005-2.33 0-4.529-0.561-6.469-1.554l0.080 0.037c-2.094-1.054-3.894-3.142-5.242-5.061 0 0-5.333 12.533 6.667 17.867-2.442 1.677-5.462 2.678-8.715 2.678-0.218 0-0.435-0.005-0.65-0.013l0.031 0.001c12 6.667 26.667 0 26.667-15.333 0-0.371-0.037-0.742-0.107-1.107 1.323-1.305 2.294-2.963 2.759-4.822l0.015-0.071z"></path>
</symbol>
<symbol id="icon-scroll-down-vector" viewBox="0 0 32 32">
<path d="M16.947 17.866c-0.241 0.244-0.576 0.394-0.946 0.394s-0.705-0.151-0.946-0.394l-0-0-6.109-6.119c-0.244-0.264-0.592-0.428-0.979-0.428-0.737 0-1.334 0.597-1.334 1.334 0 0.384 0.162 0.729 0.421 0.973l0.001 0.001 6.119 6.121c0.724 0.723 1.723 1.17 2.827 1.17s2.103-0.447 2.827-1.17l6.119-6.121c0.239-0.241 0.387-0.573 0.387-0.94 0-0.736-0.597-1.333-1.333-1.333-0.37 0-0.705 0.151-0.946 0.394l-0 0-6.108 6.119z"></path>
</symbol>
<symbol id="icon-close-modalka-white" viewBox="0 0 32 32">
<path stroke-linejoin="round" stroke-linecap="round" stroke-miterlimit="4" stroke-width="2.2857" d="M24 8l-16 16M8 8l16 16"></path>
</symbol>
<symbol id="icon-logo-desktop" viewBox="0 0 32 32">
<path d="M3.944 20.076l10.777-17.424 0.64-0.675 8.235 5.491 0.057 3.315 2.009 3.28-8.88 14.076-12.839-8.063z"></path>
<path stroke-linejoin="round" stroke-linecap="round" stroke-miterlimit="4" stroke-width="2.6667" d="M21.635 23.88l-14.187-8.864M11.361 8.599l14.185 8.864M10.629 25.864l11.736-19.249M27.176 14.788c-3.040-1.899-4.233-3.383-2.277-6.591l-9.627-6.016-11.735 19.251 14.187 8.864 9.453-15.507z"></path>
</symbol>
<symbol id="icon-instagram-footer" viewBox="0 0 32 32">
<path  stroke-linejoin="round" stroke-linecap="round" stroke-miterlimit="4" stroke-width="2.6667" d="M22.667 2.667h-13.333c-3.682 0-6.667 2.985-6.667 6.667v0 13.333c0 3.682 2.985 6.667 6.667 6.667v0h13.333c3.682 0 6.667-2.985 6.667-6.667v0-13.333c0-3.682-2.985-6.667-6.667-6.667v0z"></path>
<path  stroke-linejoin="round" stroke-linecap="round" stroke-miterlimit="4" stroke-width="2.6667" d="M21.333 15.16c0.037 0.235 0.058 0.506 0.058 0.782 0 2.946-2.388 5.334-5.334 5.334-2.67 0-4.881-1.962-5.272-4.522l-0.004-0.030c-0.037-0.235-0.058-0.506-0.058-0.782 0-2.946 2.388-5.334 5.334-5.334 2.67 0 4.881 1.962 5.272 4.522l0.004 0.030z"></path>
<path  stroke-linejoin="round" stroke-linecap="round" stroke-miterlimit="4" stroke-width="2.6667" d="M21.333 15.16c0.037 0.235 0.058 0.506 0.058 0.782 0 2.946-2.388 5.334-5.334 5.334-2.67 0-4.881-1.962-5.272-4.522l-0.004-0.030c-0.037-0.235-0.058-0.506-0.058-0.782 0-2.946 2.388-5.334 5.334-5.334 2.67 0 4.881 1.962 5.272 4.522l0.004 0.030zM23.333 8.667h0.013M23.333 8.667h0.013"></path>
</symbol>
<symbol id="icon-twitter-footer" viewBox="0 0 32 32">
<path stroke-linejoin="round" stroke-linecap="round" stroke-miterlimit="4" stroke-width="2.6667" d="M30.667 4c-1.2 0.856-2.591 1.552-4.084 2.013l-0.103 0.027c-1.101-1.261-2.712-2.053-4.507-2.053-3.299 0-5.973 2.674-5.973 5.973 0 0.028 0 0.056 0.001 0.084l-0-0.004v1.333c-0.11 0.003-0.239 0.005-0.368 0.005-4.79 0-9.027-2.37-11.602-6.001l-0.030-0.044s-5.333 12 6.667 17.333c-2.442 1.677-5.462 2.679-8.716 2.679-0.217 0-0.433-0.004-0.648-0.013l0.031 0.001c12 6.667 26.667 0 26.667-15.333 0-0.372-0.037-0.741-0.107-1.107 1.323-1.305 2.293-2.963 2.758-4.822l0.015-0.071z"></path>
</symbol>
<symbol id="icon-mastercard" viewBox="0 0 51 32">
<path fill="#ed0006" style="fill: var(--color2, #ed0006)" d="M25.6 26.934c-2.529 2.186-5.849 3.518-9.481 3.518-0.005 0-0.011 0-0.016 0h0.001c-8.086 0-14.64-6.592-14.64-14.726 0-8.133 6.554-14.726 14.64-14.726 3.622 0 6.939 1.325 9.496 3.518 2.529-2.186 5.849-3.518 9.481-3.518 0.005 0 0.011 0 0.016 0h-0.001c8.086 0 14.64 6.592 14.64 14.726 0 8.133-6.554 14.726-14.64 14.726-0.005 0-0.010 0-0.015 0-3.631 0-6.952-1.332-9.499-3.534l0.018 0.016z"></path>
<path fill="#f9a000" style="fill: var(--color3, #f9a000)" d="M25.6 26.934c3.157-2.717 5.144-6.719 5.144-11.184 0-0.008 0-0.017-0-0.025v0.001c0-0.007 0-0.016 0-0.024 0-4.465-1.987-8.466-5.125-11.168l-0.019-0.016c2.529-2.186 5.849-3.518 9.481-3.518 0.005 0 0.011 0 0.016 0h-0.001c8.086 0 14.64 6.592 14.64 14.726 0 8.133-6.554 14.726-14.64 14.726-0.005 0-0.010 0-0.015 0-3.631 0-6.952-1.332-9.499-3.534l0.018 0.016z"></path>
<path fill="#ff5e00" style="fill: var(--color4, #ff5e00)" d="M25.6 26.934c3.157-2.717 5.144-6.719 5.144-11.184 0-0.008 0-0.017-0-0.025v0.001c0-0.007 0-0.016 0-0.024 0-4.465-1.987-8.466-5.125-11.168l-0.019-0.016c-3.157 2.717-5.144 6.719-5.144 11.184 0 0.008 0 0.017 0 0.025v-0.001c0 0.007-0 0.016-0 0.025 0 4.465 1.987 8.466 5.125 11.167l0.019 0.016z"></path>
</symbol>
<symbol id="icon-ukraine" viewBox="0 0 41 32">
<path fill="#ffd700" style="fill: var(--color5, #ffd700)" d="M40.745 1.354h-40.435v30.092h40.435v-30.092z"></path>
<path fill="#0057b7" style="fill: var(--color6, #0057b7)" d="M0.311 1.354h40.434v15.045h-40.435v-15.045z"></path>
</symbol>
</defs>
</svg>
